<svg width="20" height="20" xmlns="http://www.w3.org/2000/svg" class="bi bi-shop" fill="white" stroke-width="30">

  <g>
    <title>Layer 1</title>
    <path stroke-width="30" id="svg_1" d="m4.38055,1.71792a1.11719,1.15833 0 0 1 0.84906,-0.40542l9.54078,0a1.11719,1.15833 0 0 1 0.84906,0.40542l2.91474,3.52597a1.67578,1.7375 0 0 1 0.4033,1.13053l0,0.29537a2.65332,2.75104 0 0 1 -4.74805,1.68885a2.64885,2.74641 0 0 1 -2.09473,1.06219a2.64773,2.74525 0 0 1 -2.09473,-1.06219a2.64773,2.74525 0 0 1 -2.09473,1.06219a2.64773,2.74525 0 0 1 -2.09473,-1.06219a2.65332,2.75104 0 0 1 -4.74805,-1.68885l0,-0.29537a1.67578,1.7375 0 0 1 0.4033,-1.13053l2.91586,-3.52712l-0.00112,0.00116zm1.98859,4.95187a1.53613,1.59271 0 0 0 3.07227,0a0.55859,0.57917 0 0 1 1.11719,0a1.53613,1.59271 0 0 0 3.07227,0a0.55859,0.57917 0 0 1 1.11719,0a1.53613,1.59271 0 1 0 3.07227,0l0,-0.29537a0.55859,0.57917 0 0 0 -0.13406,-0.37646l-2.91586,-3.52712l-9.54078,0l-2.91586,3.52712a0.55859,0.57917 0 0 0 -0.13406,0.37646l0,0.29537a1.53613,1.59271 0 0 0 3.07227,0a0.55859,0.57917 0 0 1 1.11719,0zm-3.63086,3.33021a0.55859,0.57917 0 0 1 0.55859,0.57917l0,6.95l1.11719,0l0,-5.79167a1.11719,1.15833 0 0 1 1.11719,-1.15833l3.35156,0a1.11719,1.15833 0 0 1 1.11719,1.15833l0,5.79167l6.70313,0l0,-6.95a0.55859,0.57917 0 0 1 1.11719,0l0,6.95l0.55859,0a0.55859,0.57917 0 0 1 0,1.15833l-16.75781,0a0.55859,0.57917 0 0 1 0,-1.15833l0.55859,0l0,-6.95a0.55859,0.57917 0 0 1 0.55859,-0.57917zm2.79297,7.52917l3.35156,0l0,-5.79167l-3.35156,0l0,5.79167zm5.58594,-5.79167a1.11719,1.15833 0 0 1 1.11719,-1.15833l2.23438,0a1.11719,1.15833 0 0 1 1.11719,1.15833l0,3.475a1.11719,1.15833 0 0 1 -1.11719,1.15833l-2.23438,0a1.11719,1.15833 0 0 1 -1.11719,-1.15833l0,-3.475zm3.35156,0l-2.23438,0l0,3.475l2.23438,0l0,-3.475z" />
  </g>
</svg>